# xmcd
#
# Track frame offsets: 
#        150
#        19032
#        30970
#        49572
#        72454
#        94430
#        117958
#        140313
#        162865
#        181545
#        202692
#        218646
#        240642
#        263597
#        284850
#        305000
#        327845
#
# Disc length: 4650 seconds
#
# Revision: 0
# Processed by: cddbd v1.4PL0 Copyright (c) Steve Scherf et al.
# Submitted via: ExactAudioCopy v0.90b4
#
DISCID=e7122811
DTITLE=黄磊 - 似水年华
DYEAR=2003
DGENRE=Pop
TTITLE0=似水年华（电视剧《似水年华》主题曲）
TTITLE1=年华似水（电视剧《似水年华》片头曲）
TTITLE2=我不知道风是往哪个方向吹（电视《人间四月天》主题曲）
TTITLE3=桔子红了（电视剧《桔子红了》主题曲）
TTITLE4=我想我是海
TTITLE5=边走边唱
TTITLE6=等等等等
TTITLE7=蝴蝶结
TTITLE8=冰点与沸点vs曾宝仪
TTITLE9=你知道我爱你
TTITLE10=再别再别康桥
TTITLE11=老车站
TTITLE12=此情此景vs周海媚
TTITLE13=石头
TTITLE14=花开的地方
TTITLE15=守着阳光守着你
TTITLE16=啦啦歌
EXTD=
EXTT0=
EXTT1=
EXTT2=
EXTT3=
EXTT4=
EXTT5=
EXTT6=
EXTT7=
EXTT8=
EXTT9=
EXTT10=
EXTT11=
EXTT12=
EXTT13=
EXTT14=
EXTT15=
EXTT16=
PLAYORDER=
